<svg width="24" height="24" viewBox="0 0 24 24" fill="none" xmlns="http://www.w3.org/2000/svg">
<path d="M12 21C10.2553 21 8.83594 19.5806 8.83594 17.8359V15.1289H6.16406C4.4194 15.1289 3 13.7095 3 11.9648C3 10.2202 4.4194 8.80078 6.16406 8.80078H8.83594V6.16406C8.83594 4.4194 10.2553 3 12 3C13.7447 3 15.1641 4.4194 15.1641 6.16406V8.80078H17.8359C19.5806 8.80078 21 10.2202 21 11.9648C21 12.3532 20.6852 12.668 20.2969 12.668C19.9085 12.668 19.5938 12.3532 19.5938 11.9648C19.5938 10.9956 18.8052 10.207 17.8359 10.207H14.4609C14.0726 10.207 13.7578 9.89224 13.7578 9.50391V6.16406C13.7578 5.1948 12.9693 4.40625 12 4.40625C11.0307 4.40625 10.2422 5.1948 10.2422 6.16406V9.50391C10.2422 9.89224 9.9274 10.207 9.53906 10.207H6.16406C5.1948 10.207 4.40625 10.9956 4.40625 11.9648C4.40625 12.9341 5.1948 13.7227 6.16406 13.7227H9.53906C9.9274 13.7227 10.2422 14.0374 10.2422 14.4258V17.8359C10.2422 18.8052 11.0307 19.5938 12 19.5938C12.9693 19.5938 13.7578 18.8052 13.7578 17.8359V14.4258C13.7578 14.0374 14.0726 13.7227 14.4609 13.7227C14.8493 13.7227 15.1641 14.0374 15.1641 14.4258V17.8359C15.1641 19.5806 13.7447 21 12 21Z" fill="#343A40"/>
<path d="M17.8359 15.1289H17.2031C16.8148 15.1289 16.5 14.8141 16.5 14.4257C16.5 14.0374 16.8148 13.7226 17.2031 13.7226H17.8359C18.0713 13.7226 18.3078 13.6714 18.5388 13.5705C18.8947 13.4151 19.3092 13.5775 19.4646 13.9333C19.6201 14.2891 19.4576 14.7037 19.1018 14.8591C18.6921 15.0381 18.2662 15.1289 17.8359 15.1289Z" fill="#343A40"/>
</svg>
