<svg width="22" height="20" viewBox="0 0 22 20" fill="none" xmlns="http://www.w3.org/2000/svg">
<path d="M27 20L24 -6H28.46L26.2 -15.08L29.68 -16L32.18 -6H40L37 20H27ZM6 0H16C17.5913 0 19.1174 0.632141 20.2426 1.75736C21.3679 2.88258 22 4.4087 22 6H0C0 4.4087 0.632141 2.88258 1.75736 1.75736C2.88258 0.632141 4.4087 0 6 0ZM22 14C22 15.5913 21.3679 17.1174 20.2426 18.2426C19.1174 19.3679 17.5913 20 16 20H6C4.4087 20 2.88258 19.3679 1.75736 18.2426C0.632141 17.1174 0 15.5913 0 14H22ZM2 8H12L15 11L18 8H20C20.5304 8 21.0391 8.21071 21.4142 8.58579C21.7893 8.96086 22 9.46957 22 10C22 10.5304 21.7893 11.0391 21.4142 11.4142C21.0391 11.7893 20.5304 12 20 12H2C1.46957 12 0.960859 11.7893 0.585786 11.4142C0.210714 11.0391 0 10.5304 0 10C0 9.46957 0.210714 8.96086 0.585786 8.58579C0.960859 8.21071 1.46957 8 2 8Z" fill="#96999D"/>
</svg>
