<svg width="18" height="16" viewBox="0 0 18 16" fill="none" xmlns="http://www.w3.org/2000/svg">
<path d="M16.1138 2.33332H13.3433L11.7439 0.666656H6.50001L4.90062 2.33332H2.13009C1.6665 2.33332 1.2219 2.50892 0.894094 2.82148C0.566286 3.13404 0.382126 3.55796 0.382126 3.99999V14C0.382126 14.442 0.566286 14.8659 0.894094 15.1785C1.2219 15.4911 1.6665 15.6667 2.13009 15.6667H16.1138C16.5774 15.6667 17.022 15.4911 17.3498 15.1785C17.6776 14.8659 17.8618 14.442 17.8618 14V3.99999C17.8618 3.55796 17.6776 3.13404 17.3498 2.82148C17.022 2.50892 16.5774 2.33332 16.1138 2.33332ZM16.1138 14H2.13009V3.99999H5.66973L7.26912 2.33332H10.9748L12.5742 3.99999H16.1138V14ZM9.12197 4.83332C7.96299 4.83332 6.85149 5.27231 6.03197 6.05371C5.21245 6.83511 4.75205 7.89492 4.75205 8.99999C4.75205 10.1051 5.21245 11.1649 6.03197 11.9463C6.85149 12.7277 7.96299 13.1667 9.12197 13.1667C10.2809 13.1667 11.3924 12.7277 12.212 11.9463C13.0315 11.1649 13.4919 10.1051 13.4919 8.99999C13.4919 7.89492 13.0315 6.83511 12.212 6.05371C11.3924 5.27231 10.2809 4.83332 9.12197 4.83332ZM9.12197 11.5C8.42658 11.5 7.75968 11.2366 7.26797 10.7678C6.77625 10.2989 6.50001 9.66303 6.50001 8.99999C6.50001 8.33695 6.77625 7.70106 7.26797 7.23222C7.75968 6.76338 8.42658 6.49999 9.12197 6.49999C9.81735 6.49999 10.4843 6.76338 10.976 7.23222C11.4677 7.70106 11.7439 8.33695 11.7439 8.99999C11.7439 9.66303 11.4677 10.2989 10.976 10.7678C10.4843 11.2366 9.81735 11.5 9.12197 11.5Z" fill="#FD7E14"/>
</svg>
