<svg width="14" height="14" viewBox="0 0 14 14" fill="none" xmlns="http://www.w3.org/2000/svg">
<path d="M11.3333 11C11.687 11 12.0261 11.1405 12.2761 11.3905C12.5262 11.6406 12.6667 11.9797 12.6667 12.3333C12.6667 12.687 12.5262 13.0261 12.2761 13.2761C12.0261 13.5262 11.687 13.6667 11.3333 13.6667C10.5933 13.6667 10 13.0667 10 12.3333C10 11.5933 10.5933 11 11.3333 11ZM0.666666 0.333336H2.84667L3.47333 1.66667H13.3333C13.5101 1.66667 13.6797 1.73691 13.8047 1.86193C13.9298 1.98696 14 2.15652 14 2.33334C14 2.44667 13.9667 2.56 13.92 2.66667L11.5333 6.98C11.3067 7.38667 10.8667 7.66667 10.3667 7.66667H5.4L4.8 8.75334L4.78 8.83334C4.78 8.87754 4.79756 8.91993 4.82881 8.95119C4.86007 8.98244 4.90246 9 4.94667 9H12.6667V10.3333H4.66667C3.92667 10.3333 3.33333 9.73334 3.33333 9C3.33333 8.76667 3.39333 8.54667 3.49333 8.36L4.4 6.72667L2 1.66667H0.666666V0.333336ZM4.66667 11C5.02029 11 5.35943 11.1405 5.60947 11.3905C5.85952 11.6406 6 11.9797 6 12.3333C6 12.687 5.85952 13.0261 5.60947 13.2761C5.35943 13.5262 5.02029 13.6667 4.66667 13.6667C3.92667 13.6667 3.33333 13.0667 3.33333 12.3333C3.33333 11.5933 3.92667 11 4.66667 11ZM10.6667 6.33334L12.52 3H4.09333L5.66667 6.33334H10.6667Z" fill="white"/>
</svg>
