<svg width="40" height="36" viewBox="0 0 40 36" fill="none" xmlns="http://www.w3.org/2000/svg">
<path d="M13 36L16 10H11.54L13.8 0.92L10.32 0L7.82 10H0L3 36H13ZM34 16H24C22.4087 16 20.8826 16.6321 19.7574 17.7574C18.6321 18.8826 18 20.4087 18 22H40C40 20.4087 39.3679 18.8826 38.2426 17.7574C37.1174 16.6321 35.5913 16 34 16ZM18 30C18 31.5913 18.6321 33.1174 19.7574 34.2426C20.8826 35.3679 22.4087 36 24 36H34C35.5913 36 37.1174 35.3679 38.2426 34.2426C39.3679 33.1174 40 31.5913 40 30H18ZM38 24H28L25 27L22 24H20C19.4696 24 18.9609 24.2107 18.5858 24.5858C18.2107 24.9609 18 25.4696 18 26C18 26.5304 18.2107 27.0391 18.5858 27.4142C18.9609 27.7893 19.4696 28 20 28H38C38.5304 28 39.0391 27.7893 39.4142 27.4142C39.7893 27.0391 40 26.5304 40 26C40 25.4696 39.7893 24.9609 39.4142 24.5858C39.0391 24.2107 38.5304 24 38 24Z" fill="white"/>
</svg>
