<svg width="16" height="36" viewBox="0 0 16 36" fill="none" xmlns="http://www.w3.org/2000/svg">
<path d="M3 36L0 10H4.46L2.2 0.92L5.68 0L8.18 10H16L13 36H3ZM-18 16H-8C-6.4087 16 -4.88258 16.6321 -3.75736 17.7574C-2.63214 18.8826 -2 20.4087 -2 22H-24C-24 20.4087 -23.3679 18.8826 -22.2426 17.7574C-21.1174 16.6321 -19.5913 16 -18 16ZM-2 30C-2 31.5913 -2.63214 33.1174 -3.75736 34.2426C-4.88258 35.3679 -6.4087 36 -8 36H-18C-19.5913 36 -21.1174 35.3679 -22.2426 34.2426C-23.3679 33.1174 -24 31.5913 -24 30H-2ZM-22 24H-12L-9 27L-6 24H-4C-3.46957 24 -2.96086 24.2107 -2.58579 24.5858C-2.21071 24.9609 -2 25.4696 -2 26C-2 26.5304 -2.21071 27.0391 -2.58579 27.4142C-2.96086 27.7893 -3.46957 28 -4 28H-22C-22.5304 28 -23.0391 27.7893 -23.4142 27.4142C-23.7893 27.0391 -24 26.5304 -24 26C-24 25.4696 -23.7893 24.9609 -23.4142 24.5858C-23.0391 24.2107 -22.5304 24 -22 24Z" fill="#96999D"/>
</svg>
