<svg width="13" height="17" viewBox="0 0 13 17" fill="none" xmlns="http://www.w3.org/2000/svg">
<path d="M11.3882 8.16666C11.3882 10.6667 9.16828 12.4167 6.75609 12.4167C4.34389 12.4167 2.12397 10.6667 2.12397 8.16666H0.638199C0.638199 11.0083 3.01544 13.3583 5.8821 13.7667V16.5H7.63007V13.7667C10.4967 13.3583 12.874 11.0083 12.874 8.16666H11.3882ZM5.70731 3.08332C5.70731 2.53332 6.17926 2.08332 6.75609 2.08332C7.33292 2.08332 7.80487 2.53332 7.80487 3.08332L7.79613 8.24999C7.79613 8.79999 7.33292 9.24999 6.75609 9.24999C6.17926 9.24999 5.70731 8.79999 5.70731 8.24999V3.08332ZM6.75609 10.6667C7.45147 10.6667 8.11838 10.4033 8.61009 9.93442C9.1018 9.46558 9.37804 8.8297 9.37804 8.16666V3.16666C9.37804 2.50362 9.1018 1.86773 8.61009 1.39889C8.11838 0.930049 7.45147 0.666656 6.75609 0.666656C6.0607 0.666656 5.3938 0.930049 4.90209 1.39889C4.41038 1.86773 4.13414 2.50362 4.13414 3.16666V8.16666C4.13414 8.8297 4.41038 9.46558 4.90209 9.93442C5.3938 10.4033 6.0607 10.6667 6.75609 10.6667Z" fill="#FD7E14"/>
</svg>
