<svg width="17" height="16" viewBox="0 0 17 16" fill="none" xmlns="http://www.w3.org/2000/svg">
<path fill-rule="evenodd" clip-rule="evenodd" d="M16.0967 14.3703L11.7161 9.98806C12.5014 8.9171 12.922 7.62232 12.9161 6.29435C12.9012 2.8279 10.0974 0.0200851 6.63098 6.36776e-05C4.97208 -0.0074418 3.37909 0.648814 2.20686 1.82264C1.03464 2.99646 0.380569 4.59034 0.390352 6.24921C0.405334 9.71597 3.20935 12.524 6.67612 12.5441C8.00952 12.5498 9.30903 12.1243 10.3807 11.3309L10.3853 11.3275L14.7619 15.7063C14.9985 15.9546 15.3511 16.0551 15.683 15.9689C16.015 15.8827 16.2741 15.6233 16.36 15.2913C16.446 14.9593 16.3452 14.6068 16.0967 14.3703ZM6.67155 11.2892C3.89828 11.2733 1.65511 9.02704 1.64293 6.25378C1.63545 4.92686 2.15875 3.65201 3.09635 2.71302C4.03395 1.77403 5.30803 1.24884 6.63498 1.25435C9.40824 1.2703 11.6514 3.51652 11.6636 6.28978C11.671 7.6167 11.1477 8.89155 10.2102 9.83054C9.27257 10.7695 7.99849 11.2947 6.67155 11.2892Z" fill="#FD7E14"/>
</svg>
