<svg width="20" height="20" viewBox="0 0 20 20" fill="none" xmlns="http://www.w3.org/2000/svg">
<g clip-path="url(#clip0)">
<path d="M8.27975 16.579H11.5917C11.5917 16.9977 11.4172 17.3993 11.1067 17.6954C10.7961 17.9915 10.3749 18.1579 9.93572 18.1579C9.49652 18.1579 9.07532 17.9915 8.76477 17.6954C8.45421 17.3993 8.27975 16.9977 8.27975 16.579ZM17.3876 15V15.7895H2.48385V15L4.13982 13.4211V8.68421C4.13982 6.23684 5.82063 4.08158 8.27975 3.38684C8.27975 3.3079 8.27975 3.23684 8.27975 3.1579C8.27975 2.73913 8.45421 2.33752 8.76477 2.04141C9.07532 1.7453 9.49652 1.57895 9.93572 1.57895C10.3749 1.57895 10.7961 1.7453 11.1067 2.04141C11.4172 2.33752 11.5917 2.73913 11.5917 3.1579C11.5917 3.23684 11.5917 3.3079 11.5917 3.38684C14.0508 4.08158 15.7316 6.23684 15.7316 8.68421V13.4211L17.3876 15ZM14.0756 8.68421C14.0756 7.63731 13.6395 6.63328 12.8631 5.893C12.0867 5.15273 11.0337 4.73684 9.93572 4.73684C8.83774 4.73684 7.78473 5.15273 7.00835 5.893C6.23196 6.63328 5.79579 7.63731 5.79579 8.68421V14.2105H14.0756V8.68421ZM16.3526 2.51842L15.1769 3.63948C16.5927 4.97369 17.3876 6.78948 17.3876 8.68421H19.0436C19.0436 6.37105 18.0831 4.14474 16.3526 2.51842ZM0.827881 8.68421H2.48385C2.48385 6.78948 3.27872 4.97369 4.69457 3.63948L3.51883 2.51842C1.78834 4.14474 0.827881 6.37105 0.827881 8.68421Z" fill="#96999D"/>
</g>
<circle cx="13.6842" cy="13.6842" r="6.31579" fill="#FC2C3F"/>
<path d="M12.6216 11.6964L13.9107 11.0674H14.0396V15.5401C14.0396 15.837 14.0513 16.0219 14.0747 16.0948C14.1008 16.1677 14.1529 16.2237 14.231 16.2628C14.3091 16.3018 14.468 16.324 14.7076 16.3292V16.4737H12.7154V16.3292C12.9654 16.324 13.1268 16.3031 13.1997 16.2667C13.2727 16.2276 13.3234 16.1768 13.3521 16.1143C13.3807 16.0492 13.3951 15.8578 13.3951 15.5401V12.6807C13.3951 12.2953 13.382 12.0479 13.356 11.9385C13.3378 11.8552 13.3039 11.794 13.2544 11.7549C13.2076 11.7159 13.1503 11.6964 13.0826 11.6964C12.9862 11.6964 12.8521 11.7367 12.6802 11.8174L12.6216 11.6964Z" fill="white"/>
<defs>
<clipPath id="clip0">
<rect width="19.8716" height="18.9474" fill="white"/>
</clipPath>
</defs>
</svg>
