<svg width="16" height="16" viewBox="0 0 16 16" fill="none" xmlns="http://www.w3.org/2000/svg">
<path fill-rule="evenodd" clip-rule="evenodd" d="M15.7065 14.3703L11.3259 9.98806C12.1112 8.9171 12.5318 7.62232 12.5259 6.29435C12.511 2.8279 9.70719 0.0200851 6.24074 6.36776e-05C4.58184 -0.0074418 2.98885 0.648814 1.81662 1.82264C0.644401 2.99646 -0.00967429 4.59034 0.000108173 6.24921C0.0150908 9.71597 2.81911 12.524 6.28588 12.5441C7.61928 12.5498 8.91879 12.1243 9.99049 11.3309L9.99506 11.3275L14.3717 15.7063C14.6083 15.9546 14.9609 16.0551 15.2928 15.9689C15.6248 15.8827 15.8839 15.6233 15.9698 15.2913C16.0558 14.9593 15.955 14.6068 15.7065 14.3703ZM6.28131 11.2892C3.50804 11.2733 1.26487 9.02704 1.25269 6.25378C1.24521 4.92686 1.76851 3.65201 2.70611 2.71302C3.64371 1.77403 4.91779 1.24884 6.24474 1.25435C9.018 1.2703 11.2612 3.51652 11.2734 6.28978C11.2808 7.6167 10.7575 8.89155 9.81994 9.83054C8.88233 10.7695 7.60825 11.2947 6.28131 11.2892Z" fill="#343A40"/>
</svg>
