<svg width="18" height="18" viewBox="0 0 18 18" fill="none" xmlns="http://www.w3.org/2000/svg">
<defs>


<linearGradient id="paint0_linear" x1="9" y1="0" x2="9" y2="18" gradientUnits="userSpaceOnUse">
<stop offset="0.0416667" stop-color="#4FD8C6"/>
<stop offset="0.359375" stop-color="#4FD3F3"/>
<stop offset="0.807292" stop-color="#8276DA"/>
</linearGradient>
<linearGradient id="paint1_linear" x1="15.0118" y1="10.5115" x2="15.0118" y2="12.1289" gradientUnits="userSpaceOnUse">
<stop offset="0.0416667" stop-color="#4FD8C6"/>
<stop offset="0.359375" stop-color="#4FD3F3"/>
<stop offset="0.807292" stop-color="#8276DA"/>
</linearGradient>
</defs>
<path d="M9 18C7.25534 18 5.83594 16.5806 5.83594 14.8359V12.1289H3.16406C1.4194 12.1289 0 10.7095 0 8.96484C0 7.22018 1.4194 5.80078 3.16406 5.80078H5.83594V3.16406C5.83594 1.4194 7.25534 0 9 0C10.7447 0 12.1641 1.4194 12.1641 3.16406V5.80078H14.8359C16.5806 5.80078 18 7.22018 18 8.96484C18 9.35318 17.6852 9.66797 17.2969 9.66797C16.9085 9.66797 16.5938 9.35318 16.5938 8.96484C16.5938 7.99559 15.8052 7.20703 14.8359 7.20703H11.4609C11.0726 7.20703 10.7578 6.89224 10.7578 6.50391V3.16406C10.7578 2.1948 9.96926 1.40625 9 1.40625C8.03074 1.40625 7.24219 2.1948 7.24219 3.16406V6.50391C7.24219 6.89224 6.9274 7.20703 6.53906 7.20703H3.16406C2.1948 7.20703 1.40625 7.99559 1.40625 8.96484C1.40625 9.9341 2.1948 10.7227 3.16406 10.7227H6.53906C6.9274 10.7227 7.24219 11.0374 7.24219 11.4258V14.8359C7.24219 15.8052 8.03074 16.5938 9 16.5938C9.96926 16.5938 10.7578 15.8052 10.7578 14.8359V11.4258C10.7578 11.0374 11.0726 10.7227 11.4609 10.7227C11.8493 10.7227 12.1641 11.0374 12.1641 11.4258V14.8359C12.1641 16.5806 10.7447 18 9 18Z" fill="url(#paint0_linear)"/>
<path d="M14.8359 12.1289H14.2031C13.8148 12.1289 13.5 11.8141 13.5 11.4258C13.5 11.0374 13.8148 10.7226 14.2031 10.7226H14.8359C15.0713 10.7226 15.3078 10.6715 15.5388 10.5705C15.8947 10.4151 16.3092 10.5775 16.4646 10.9333C16.6201 11.2891 16.4576 11.7037 16.1018 11.8591C15.6921 12.0381 15.2662 12.1289 14.8359 12.1289Z" fill="url(#paint1_linear)"/>
</svg>
