<svg width="14" height="14" viewBox="0 0 14 14" fill="none" xmlns="http://www.w3.org/2000/svg">
<path d="M7.00486 0.46673C6.92832 0.46476 6.85778 0.509016 6.82476 0.579736L4.90882 4.6856L0.502055 5.28208C0.427891 5.29213 0.365961 5.3449 0.342845 5.41773C0.319729 5.49056 0.339538 5.57051 0.39377 5.62327L3.61641 8.75728L2.80882 13.2318C2.79525 13.3071 2.82513 13.3837 2.88565 13.4287C2.94616 13.4737 3.02656 13.4791 3.09232 13.4427L6.99998 11.2737L10.9076 13.4427C10.9734 13.4791 11.0538 13.4737 11.1143 13.4287C11.1748 13.3837 11.2047 13.3071 11.1911 13.2318L10.3836 8.75728L13.6062 5.62327C13.6605 5.57051 13.6803 5.49055 13.6572 5.41771C13.634 5.34487 13.5721 5.29211 13.4979 5.28208L9.09114 4.6856L7.1752 0.579736C7.1437 0.512274 7.07789 0.46861 7.00486 0.46673Z" fill="#FFC107"/>
</svg>
